<svg width="120" height="65" viewBox="0 0 120 65" fill="none" xmlns="http://www.w3.org/2000/svg">
<path fill-rule="evenodd" clip-rule="evenodd" d="M31.4845 3.22786C33.3529 0.000460817 37.6086 -0.838174 40.9301 0.85723C52.8924 6.96311 67.1076 6.96311 79.0698 0.857232C82.3913 -0.838172 86.6471 0.000459824 88.5154 3.22786L119.419 56.6113C121.477 60.1656 117.69 64.2366 113.996 62.4413L108.851 59.9405C99.4949 55.3931 88.5689 55.3931 79.2128 59.9405C67.0826 65.8363 52.9171 65.8363 40.787 59.9405C31.4309 55.3931 20.5049 55.3931 11.1488 59.9405L6.00391 62.4412C2.31014 64.2365 -1.47656 60.1655 0.581042 56.6112L31.4845 3.22786Z" fill="url(#paint0_linear_361_3490)"/>
<path d="M40.5517 1.59863C37.5445 0.0636917 33.8092 0.873691 32.2049 3.6449L1.30144 57.0282C-0.344742 59.8719 2.68479 63.1289 5.64003 61.6925L10.7849 59.1919C20.3707 54.5327 31.565 54.5327 41.1508 59.1919C53.0513 64.976 66.9485 64.976 78.8489 59.1919C88.4347 54.5327 99.629 54.5327 109.215 59.1919L114.36 61.6926C117.315 63.129 120.345 59.872 118.699 57.0283L87.795 3.6449C86.1908 0.873691 82.4554 0.063693 79.4482 1.59864C67.2483 7.82585 52.7516 7.82585 40.5517 1.59863Z" stroke="url(#paint1_linear_361_3490)" stroke-opacity="0.2" stroke-width="1.6648"/>
<path fill-rule="evenodd" clip-rule="evenodd" d="M58.8568 30.875C66.8674 15.1863 69.458 9.70585 79.4764 1.46788C82.3568 -0.900656 86.6471 0.00203329 88.5154 3.22943L119.419 56.6129C121.477 60.1672 117.69 64.2382 113.996 62.4428L108.851 59.9421C99.4949 55.3946 88.5689 55.3946 79.2128 59.9421C67.0826 65.8379 52.9171 65.8379 40.787 59.9421C31.4309 55.3946 20.5049 55.3946 11.1488 59.9421L6.00392 62.4428C2.31015 64.2381 -1.47656 60.1671 0.581034 56.6128L16.6645 28.8298C16.6645 28.8298 49.5432 49.1155 58.8568 30.875Z" fill="url(#paint2_linear_361_3490)"/>
<path d="M80.0051 2.11083C70.4633 9.95688 67.7884 15.2 60.3761 29.729C60.1225 30.2261 59.8633 30.7342 59.5981 31.2535C57.1273 36.0925 53.0691 38.3775 48.4594 39.0737C43.8923 39.7634 38.7728 38.901 34.0307 37.4904C29.2759 36.076 24.8276 34.088 21.5746 32.4587C19.9462 31.6431 18.613 30.9151 17.6855 30.3903C17.4072 30.2328 17.1654 30.0936 16.963 29.9757L1.30143 57.0298C-0.344734 59.8735 2.68479 63.1305 5.64004 61.6941L10.7849 59.1935C20.3708 54.5343 31.565 54.5343 41.1508 59.1935C53.0513 64.9776 66.9485 64.9776 78.8489 59.1935C88.4347 54.5343 99.629 54.5343 109.215 59.1934L114.36 61.6942C117.315 63.1306 120.345 59.8735 118.699 57.0299L87.795 3.64647C86.1682 0.836276 82.4645 0.0884556 80.0051 2.11083Z" stroke="url(#paint3_linear_361_3490)" stroke-opacity="0.1" stroke-width="1.6648"/>
<defs>
<linearGradient id="paint0_linear_361_3490" x1="54.1067" y1="0.000976346" x2="60.3497" y2="33.2969" gradientUnits="userSpaceOnUse">
<stop stop-color="#F83600"/>
<stop offset="1" stop-color="#940000"/>
</linearGradient>
<linearGradient id="paint1_linear_361_3490" x1="79.0789" y1="9.36546" x2="18.7313" y2="24.9798" gradientUnits="userSpaceOnUse">
<stop stop-color="white" stop-opacity="0.48"/>
<stop offset="0.564103" stop-color="white"/>
<stop offset="1" stop-color="white" stop-opacity="0.02"/>
</linearGradient>
<linearGradient id="paint2_linear_361_3490" x1="120" y1="0.132812" x2="120" y2="64.3639" gradientUnits="userSpaceOnUse">
<stop stop-color="#FE8C00"/>
<stop offset="1" stop-color="#F83600"/>
</linearGradient>
<linearGradient id="paint3_linear_361_3490" x1="119.659" y1="56.1876" x2="4.16243" y2="53.0661" gradientUnits="userSpaceOnUse">
<stop stop-color="white" stop-opacity="0.48"/>
<stop offset="0.279686" stop-color="white"/>
<stop offset="0.511557" stop-color="white"/>
<stop offset="1" stop-color="white" stop-opacity="0.52"/>
</linearGradient>
</defs>
</svg>
