<svg width="127" height="64" viewBox="0 0 127 64" fill="none" xmlns="http://www.w3.org/2000/svg">
<path fill-rule="evenodd" clip-rule="evenodd" d="M47.3782 1.82136C48.4321 0.000685614 50.8329 -0.472415 52.7067 0.484016C59.455 3.92854 67.4742 3.92854 74.2225 0.484017C76.0963 -0.472414 78.4971 0.000685054 79.5511 1.82136L96.9847 31.9366C98.1455 33.9417 96.0093 36.2383 93.9255 35.2255L91.023 33.8147C85.7449 31.2494 79.5812 31.2494 74.3032 33.8148C67.4602 37.1407 59.4689 37.1407 52.626 33.8148C47.3479 31.2494 41.1842 31.2494 35.9061 33.8148L33.0037 35.2254C30.92 36.2383 28.7838 33.9417 29.9445 31.9366L47.3782 1.82136Z" fill="url(#paint0_linear_361_3556)"/>
<path d="M52.4932 0.902265C50.7968 0.0363561 48.6896 0.493302 47.7845 2.05663L30.3509 32.1718C29.4223 33.776 31.1313 35.6134 32.7985 34.8031L35.7009 33.3924C41.1085 30.7641 47.4236 30.7641 52.8312 33.3924C59.5446 36.6554 67.3845 36.6554 74.0979 33.3924C79.5055 30.7641 85.8206 30.764 91.2283 33.3924L94.1308 34.8032C95.7979 35.6135 97.507 33.7761 96.5783 32.1719L79.1447 2.05663C78.2397 0.493302 76.1324 0.0363569 74.436 0.902266C67.5536 4.41523 59.3756 4.41523 52.4932 0.902265Z" stroke="url(#paint1_linear_361_3556)" stroke-opacity="0.2" stroke-width="0.939168"/>
<path fill-rule="evenodd" clip-rule="evenodd" d="M62.8197 17.4178C67.3387 8.56734 68.8002 5.47564 74.4519 0.828348C76.0768 -0.507817 78.4971 0.00141866 79.5511 1.8221L96.9847 31.9374C98.1455 33.9425 96.0093 36.239 93.9255 35.2262L91.023 33.8155C85.7449 31.2501 79.5812 31.2501 74.3032 33.8155C67.4602 37.1415 59.4689 37.1415 52.626 33.8155C47.3479 31.2501 41.1842 31.2501 35.9061 33.8155L33.0037 35.2262C30.92 36.239 28.7838 33.9424 29.9445 31.9373L39.0177 16.2641C39.0177 16.2641 57.5656 27.7078 62.8197 17.4178Z" fill="url(#paint2_linear_361_3556)"/>
<path d="M39.1861 16.9105L30.3509 32.1726C29.4223 33.7768 31.1313 35.6142 32.7985 34.8038L35.7009 33.3932C41.1085 30.7648 47.4236 30.7648 52.8312 33.3932C59.5446 36.6562 67.3845 36.6562 74.0979 33.3932C79.5055 30.7648 85.8206 30.7648 91.2283 33.3931L94.1308 34.8039C95.7979 35.6142 97.507 33.7768 96.5783 32.1726L79.1447 2.05736C78.2269 0.472041 76.1376 0.0501722 74.7501 1.19106C69.3673 5.61726 67.8583 8.57509 63.6768 16.7713C63.5337 17.0518 63.3875 17.3384 63.2379 17.6314C61.8441 20.3612 59.5547 21.6502 56.9542 22.043C54.3777 22.4321 51.4897 21.9455 48.8145 21.1498C46.1322 20.3519 43.6227 19.2304 41.7876 18.3112C40.869 17.8511 40.1169 17.4405 39.5937 17.1444C39.4367 17.0555 39.3003 16.977 39.1861 16.9105Z" stroke="url(#paint3_linear_361_3556)" stroke-opacity="0.1" stroke-width="0.939168"/>
<path d="M44.5096 64.0005L35.9867 54.0351L27.5168 64.0005H23.584V63.5772L34.0892 51.1182H37.9584L48.4743 63.5772V64.0005H44.5096Z" fill="#FBF7FF"/>
<path d="M122.875 64.0005L114.352 54.0351L105.882 64.0005H101.949V63.5772L112.454 51.1182H116.324L126.84 63.5772V64.0005H122.875Z" fill="#FBF7FF"/>
<path fill-rule="evenodd" clip-rule="evenodd" d="M20.438 51.1182H21.6671V52.7111H22.0903V51.1182H25.452V51.5407L20.4379 57.4845L20.438 54.9191L12.53 60.2462H11.7137L3.71022 54.7804V64.0005H0V51.1182H3.80563L12.1165 56.7128L20.438 51.1182Z" fill="#FBF7FF"/>
<path fill-rule="evenodd" clip-rule="evenodd" d="M78.3652 64.0005V51.1182H82.1709L90.4818 56.7128L98.8033 51.1182H103.817V51.5407L98.8031 57.4845L98.8033 54.9191L90.8952 60.2462H90.0789L87.0924 58.2066V56.9031H86.328V57.6846L82.0755 54.7804V64.0005H78.3652Z" fill="#FBF7FF"/>
<path d="M71.9663 51.1182V54.0167H57.1785C56.129 54.0167 55.97 54.1547 55.97 55.0657V60.053C55.97 60.9639 56.129 61.102 57.1785 61.102H68.2561V58.9396H62.1184V56.0503H71.9663V64.0005H56.3304C53.6909 64.0005 52.2598 62.7583 52.2598 60.467V54.6516C52.2598 52.3604 53.6909 51.1182 56.3304 51.1182H71.9663Z" fill="#FBF7FF"/>
<defs>
<linearGradient id="paint0_linear_361_3556" x1="60.14" y1="0.00097644" x2="63.6619" y2="18.7843" gradientUnits="userSpaceOnUse">
<stop stop-color="#F83600"/>
<stop offset="1" stop-color="#940000"/>
</linearGradient>
<linearGradient id="paint1_linear_361_3556" x1="74.2276" y1="5.28377" x2="40.1836" y2="14.0923" gradientUnits="userSpaceOnUse">
<stop stop-color="white" stop-opacity="0.48"/>
<stop offset="0.564103" stop-color="white"/>
<stop offset="1" stop-color="white" stop-opacity="0.02"/>
</linearGradient>
<linearGradient id="paint2_linear_361_3556" x1="97.3125" y1="0.0751953" x2="97.3125" y2="36.31" gradientUnits="userSpaceOnUse">
<stop stop-color="#FE8C00"/>
<stop offset="1" stop-color="#F83600"/>
</linearGradient>
<linearGradient id="paint3_linear_361_3556" x1="97.1199" y1="31.6975" x2="31.9649" y2="29.9365" gradientUnits="userSpaceOnUse">
<stop stop-color="white" stop-opacity="0.48"/>
<stop offset="0.279686" stop-color="white"/>
<stop offset="0.511557" stop-color="white"/>
<stop offset="1" stop-color="white" stop-opacity="0.52"/>
</linearGradient>
</defs>
</svg>
